<svg id="Layer_1" data-name="Layer 1" xmlns="http://www.w3.org/2000/svg" xmlns:xlink="http://www.w3.org/1999/xlink" viewBox="0 0 470.69 482.5"><defs><style>.cls-1{fill:none;clip-rule:evenodd;}.cls-2{clip-path:url(#clip-path);}.cls-3{fill:#f0b848;}.cls-4{fill:#f18cff;}.cls-5{fill:#dda128;}.cls-6{fill:#eb5eff;}.cls-7{fill:#f6b0ff;}.cls-8{fill:#fc6;}.cls-9{fill:#faceff;}.cls-10{fill:#fbe58a;}.cls-11{fill:#0b1321;}.cls-11,.cls-12,.cls-13,.cls-14,.cls-15,.cls-16,.cls-17,.cls-18{fill-rule:evenodd;}.cls-12{fill:#d54a8c;}.cls-13{fill:#f2873c;}.cls-14{fill:#890b53;}.cls-15{fill:#661c37;}.cls-16{fill:#3c1434;}.cls-17{fill:#aead93;}.cls-18{fill:#c93246;}</style><clipPath id="clip-path"><path class="cls-1" d="M-27.28,316.69c-15.87.64-38,4-64.62,16.31L-94.69,60.14,574.3-89V528.63c-69-45.11-110.63-45.7-136.33-36.76-11.49,4-24.11,10.79-42,8.4-26.59-3.54-45.59-27.08-57.74-47.17l22.44,31.27c-.6-.09-40.29-37.68-44.73-41.78-15.22-14-31.56-26.72-47.53-39.14-16.71-13-31.39-24.91-49.64-37-8.83-5.86-17.09-11.86-26.08-17.26-8.55-5.15-20.63-10-28.17-15.09l2.78-7.3-44-29.26c-11.35-4.91-16.42-4-28.58-5.11-9.76-.91-18.06-6.43-27.95-.91a28.42,28.42,0,0,0-4.25,2.85A80,80,0,0,0,49.27,307.8C40.6,319.42-3.7,315.75-27.28,316.69Z"/></clipPath></defs><g class="cls-2"><path class="cls-3" d="M234.24,462.15c-3.63,0-7.23-.12-10.82-.28C227,462,230.61,462.15,234.24,462.15Z"/><path class="cls-3" d="M221.13,461.75c-3.52-.2-7-.47-10.52-.83C214.1,461.28,217.61,461.55,221.13,461.75Z"/><path class="cls-4" d="M54.2,314.92c.46.72.32,1.7.68,2.49.8,1.72,3.4,1.51,4.8,2.79,1.12,1,1.2,2.8.85,4.29a26.57,26.57,0,0,0-1.11,4.45c-.11,2,.76,4.17-.24,5.9-.48.81-1.33,1.42-1.51,2.34-.3,1.4,1,2.57,1.62,3.86.69,1.51.32,3.26.24,4.9s.37,3.6,1.88,4.28,3.27-.29,4.91-.09c4.67.61,5.48,3.67,10.66,2.4s10.7-3.43,16-5a7.35,7.35,0,0,1,.37-9.52c3.54-3.65,9.55-2.52,14.46-1.14,2.39.66,4.87,1.38,6.78,2.95a16.44,16.44,0,0,0,2.62,2.12c2.49,1.31,6.13-.13,8.1,2.12,2.29,2.62.39,7.73.46,10.74.13,6.32,6.86,11.19,13.17,10.64a8.46,8.46,0,0,0,3.26-.89,6.7,6.7,0,0,1,2.22-1.07c1.89-.26,3.19,2.07,3.09,4s-1,3.78-.84,5.69,2.12,3.93,3.81,3c1-.55,1.31-1.79,2.16-2.51,2.77-2.36,7.75,2.38,10.35-.16.85-.85,1.05-2.23,2-3,2.27-1.68,6.12,2,8.06-.1.84-.9.75-2.58,1.86-3.21.81-.44,1.82,0,2.75-.05,1.68,0,3-1.38,4.26-2.47,2.21-1.85,7.72-1.63,9.26,1.25.71,1.4.29,3.1.6,4.63.89,4.37,6.59,5.17,10.9,6.23a35.18,35.18,0,0,1,7.66,3.08c-.5-4.12-1.72-8.35,1-11.28,3.84-4.08,11.67.74,15.93-2.88,2.27-1.94,2.59-5.62,5.11-7.17,3.78-2.35,8.41,2.39,8.74,6.84s-1.51,8.89-.77,13.28c1.07,6.21,8,10.71,14.13,9.13,2-7.1,15.56-6.64,15.73-14,.07-3.11-2.66-5.64-3.19-8.7-.78-4.34,2.76-8,5.29-11.62,8.19-11.58-3.34-23-14.64-24.6-7.6-1.11-15.59,0-22.82-2.57a9.48,9.48,0,0,1-4.83-3.21c-2-2.87-1.09-6.75-.11-10.1,2.47-8.47,6.12-18.17,14.57-20.64-5.7-5.42-11.43-10.83-17.41-15.95-7.73-6.66-6.25-3.18-14-4.12a5.93,5.93,0,0,1-4.93-4.42c-.46-2-.31-4.85-2.34-5.28,3.14-1.69,3-6.14,2.51-9.66s-.44-8,2.78-9.54c.87-.4,1.92-.53,2.55-1.27a3.84,3.84,0,0,0,.61-2.4c.05-2.93.13-5.88.18-8.81a7.33,7.33,0,0,1-4.59-.63,7.52,7.52,0,0,0-7.17-8.67,38.07,38.07,0,0,1,3-3.92c1.5-1.37,3.4-2.29,4.83-3.73,3-3,2-8.26,6.77-9.72a14.76,14.76,0,0,1,3.75-.4c3.61-.17,7.26-.85,10.82-.19s7.14,3.23,7.47,6.82a9.41,9.41,0,0,0,.35,2.88c.67,1.48,2.51,2,3.45,3.36.72,1,.81,2.3,1.33,3.41,1.42,3.08,5.37,3.85,8.74,4.11,2.45.19,5.13.24,7.08-1.25,3.41-2.56,3.56-8.85,7.75-9.67,1.18-.22,2.45.12,3.56-.35,1.68-.68,2.21-2.71,3-4.33,5.07-10.79,16,3,23.42,3.93,4.66.55,9.44-1.75,14-.61s11.14,4.5,11.9,9.39c.31,2.14.76,4.64,2.71,5.53,1.7.76,3.67-.17,5.09-1.35s2.73-2.61,4.5-3.19c2.45-.79,5.07.41,7.65.63,4.54.42,7.6,0,11.83,1.94,3.76,1.75,9,2.19,12.32,4.16,1.21.72,1.9,2.55.92,3.55,2.47.09,4.77,2.14,7.17,1.51a6.09,6.09,0,0,0,2.93-2.22c5.59-6.8,6.61-17.22,1.94-24.86-1.11-1.78-2.67-4-4.72-4.7s-4,.3-5.7-1.53a12.4,12.4,0,0,1-1.9-4c-.52-1.4-1.4-2.84-2.84-3.23a5.52,5.52,0,0,0-2.18,0l-9.07,1.22c-3.39.44-7.43,1.4-8.5,4.64-.39,1.17-.31,2.48-.85,3.58-1.68,3.4-9.46,5.81-13,5.68-4.65-.2-9.59-2.75-11-7.49-1.05-3.7.2-7.7-.39-11.5a12.26,12.26,0,0,0-11.52-10c-4.67-.08-9.93,2.65-14.43.51-3.72-1.75-4.85-7.36-3.09-11,.66-1.4,1.82-2.52,2.62-3.87,3-5.07.94-12.65,5.4-16.5,2.25-2,5.48-2.2,8.28-3.23s5.46-2.84,8.35-2.34a25.92,25.92,0,0,1,3.29,1.1c3.32,1.11,5.42-.66,8.48-.68,2.86,0,5.31,1.7,7.88,2.67,3,1.13,6.21,1.9,9.27,2.88a2.8,2.8,0,0,1,1.26.7c.7.83.16,2.09.22,3.16.13,2,2.51,3.21,4.53,3.11s4-1,6-1.18c3.13-.31,6.34,1.07,9.39.3,5-1.27,5.29-6.4,2.84-10.26-1-1.53-2.49-2.95-2.48-4.77s1.81-3.38,3.62-4.06c3.47-1.31,8.26-2.79,9.77-6.6,1.92-4.8-6.67-4.72-3-9.54a5.35,5.35,0,0,1,.62-.72,40.21,40.21,0,0,1,3.25-2.47,42.28,42.28,0,0,1,3.76-3.17,10.58,10.58,0,0,1,7-1.18,31.11,31.11,0,0,1,6.86,2.12c-.63-.26-.48,2.14-.43,2.36.35,1.25,1.64,1.66,2.71,2,2.14.74,3.77,0,5.66-.83a79.09,79.09,0,0,0,7.36-3.54,92.16,92.16,0,0,0-20.62-20.82c-3.65-2.6-7.7-5.07-9.71-9.1-1.87-3.68-1.66-8.11-3.29-11.93-2.41-5.7-8.33-9-13.92-11.63a308.46,308.46,0,0,0-58.24-20.94c-4-1-9-1.6-11.57,1.68l9.8,6.16c.2,3.45.4,6.9.61,10.33,4.7-1.46,9.79-2.9,14.44-1.33s8,7.65,5.09,11.62a10.05,10.05,0,0,1-4.89,3.1c-13.08,4.46-31,1-37.88,13-1.46,2.57-2.18,5.61-4.28,7.69C275,97.17,266.51,94,260.45,97c-5.56,2.71-7.36,9.52-10.41,14.9s-10.66,9.81-15,5.4c-.44-5.36-6.31-8.94-11.69-8.83s-10.31,2.86-15,5.55c.83-7-8.69-9.85-15.69-9.72s-16.47-1.31-17.14-8.3c-.14-1.64.28-3.41-.38-4.92s-3.34-2.09-3.8-.48c-12.19,9.7-13.23,28.73-24.94,39-10.09,8.83-26.89,10.1-32.75,22.17-1.26,2.58-1.92,5.56-4,7.52-5,4.68-13.85.31-19.72,3.84S84.65,175.72,80,180.86C75.84,185.55,68.13,186,64.35,191c-7.38,9.8,7.06,24.42,1.62,35.41-2,4.12-6.59,6.79-7.89,11.2-3,10,12.43,17.48,11.61,27.88-.59,7.4-10,11.59-16.94,8.93s-11.11-9.87-12.82-17.08C38.66,252,37.29,245.08,31.87,244c.26,3.41.48,7-1.07,10.05s-5.55,5.11-8.48,3.36a6.69,6.69,0,0,0-5-8.93c-5.57-.74,6.3,41.92,7.32,45.28a271.56,271.56,0,0,0,9.11,26,35.68,35.68,0,0,1,5.18-2.3C41.33,316.6,52.41,312.23,54.2,314.92ZM251.48,123.5c1.52-2.41,5.27-2.42,7-4.67,2.09-2.7.54-7.62,3.52-9.29-.31.17,12.67-2.62,11.83-2.71,2.9.32,1.94.56,4.83,1.51,2.06.67,6.42,3.91,9.19,5,3.29,1.3,9.31.09,9.73,5.45.19,2.41-1.67,4.53-1.89,6.93-.4,4.54,5.08,8.46,3.71,12.81-1.24,4-6.79,4.25-10,6.92s-3.59,7.36-4.38,11.47a40,40,0,0,1-2.95,9.16c-2.72,5.89-6.81,11-10.86,16.08-1,1.25-2.14,2.59-3.72,2.86a6.71,6.71,0,0,1-3.29-.54l-8.16-2.83a5,5,0,0,1-2.71-1.65c-1.28-1.91.52-4.44,2.51-5.59s4.44-2,5.43-4c1.34-2.8-.8-5.89-2.23-8.63a20.43,20.43,0,0,1,.07-18.73,10.56,10.56,0,0,0,1.3-2.94c.64-3.35-2.63-6-5.34-8.06S249.65,126.38,251.48,123.5Zm-73.93,97.57c.84-3.39-1.14-7.77,1.52-10a6.89,6.89,0,0,1,3.22-1.23l8.37-1.68c-.65.13,1.76-6.15,2.11-6.63a12.41,12.41,0,0,1,6.41-4.72c2.21-.63,5.46-.6,7.11,1.34,1.38,1.63,1.73,6.39-.43,7.83-.53.35-1.15.52-1.7.83a7.07,7.07,0,0,0-2.41,3c-.43.77-.85,1.54-1.27,2.31l-5.06,9.21a1.67,1.67,0,0,0-.3,1.22c.2.69,1.09.82,1.76,1.07,2.38.93,2.41,4.45,1,6.61s-3.61,3.67-4.84,5.91c-2.29,4.16-.49,9.66-2.72,13.87-.87,1.64-2.31,3-3,4.73-.75,2,1,4.43-.07,6s-4,1.32-5.64,1a10.15,10.15,0,0,1-4.43-1.63c-2.53-2-2.75-5.71-2.24-8.88s1.5-6.44.61-9.52c-1.06-3.63-4.64-6.58-4.24-10.34C171.83,227.29,176.58,225,177.55,221.07Zm-43.5,77.43c.35-.74,1.42-.56,2.23-.65,1.1-.12,2-.91,3-1.4a6,6,0,0,1,6.7,1.09l1.91-2.45.88,1.15a7.4,7.4,0,0,1,1.25-2.77,10.82,10.82,0,0,1,1.71,2.94c.64-2.45,1.28-4.89,1.93-7.34.18,2.26-.28,5.13.27,7.29.63,2.5.77,1.75,1.78-.31a45.93,45.93,0,0,1,2.88-5.41c.56-.87,3.48-3.61,3.48-4.44a26.64,26.64,0,0,1-4.51,14.67,7.57,7.57,0,0,1,6.46.64l-.87,2.49a11.45,11.45,0,0,1,4.48,0,1.9,1.9,0,0,0-.61,2.82,3.73,3.73,0,0,0,2.94,1.31,12.15,12.15,0,0,0-4.69,2.11.9.9,0,0,0,0,1.64c2.8,2.49,7.1,3.57,8.57,7a85.91,85.91,0,0,1-14.39-3.63c.34,1.17.69,2.33,1,3.5a13.13,13.13,0,0,1-4.07-2.3,2.75,2.75,0,0,1,.42,2.72,6.51,6.51,0,0,1-3.41-1.13,6.37,6.37,0,0,1-5.5,6.15l-.15-6.65a2.5,2.5,0,0,1-3.22-2.74l-2.36,2a9,9,0,0,1,.21-3.51,24.14,24.14,0,0,1-12.74,1.12l5.76-4.92L128.45,308l7.2-1.61-.89-1.79a5.35,5.35,0,0,0,2.49-1.12,1.87,1.87,0,0,0,.33-2.48c-.53-.61-1.46-.62-2.24-.81S133.7,299.24,134.05,298.5ZM79.91,192.86c1.39-2.54,5.26-2.52,7.13-4.73.49-.58.82-1.28,1.34-1.82a6.18,6.18,0,0,1,3.07-1.48,33.28,33.28,0,0,1,9.43-1,11,11,0,0,0,3.81-.21,18.61,18.61,0,0,0,3.26-1.81c7.56-4.48,11.08,3.23,17,5.66a14.91,14.91,0,0,1,3.41,1.58,3,3,0,0,1,1.27,3.27,3,3,0,0,0-3.56,2.95c.09,1.17.9,2.24.75,3.39-.28,2-3.24,2.8-3.63,4.82-.17.91.24,1.9-.13,2.75-.8,1.88-3.56.79-5.58.43-4.31-.79-8.14,4-7.66,8.34.23,2.11,1.12,4.48-.17,6.17s-3.53,1.5-5.49,1.82-3.85,1.18-5.8,1.64-4.2.44-5.77-.82-1.9-4.06-.23-5.18a10.3,10.3,0,0,1-4.68-.93c-1.4-.79-2.42-2.51-1.87-4,.25-.67.76-1.22,1-1.89.52-1.59-.83-3.31-2.43-3.8-1.9-.58-4.85,1.3-6.25.44-2.7-1.67.65-3.81,1.59-5.21C81.7,200.31,78.19,196,79.91,192.86ZM72.67,311c2.94-2.7,8.69.35,8.1,4.3h.74c-.48,3.87-5.53,6.32-8.86,4.3C72.66,316.73,72.66,313.87,72.67,311Z"/><path class="cls-3" d="M204.47,460.23c1.62.21,3.26.38,4.89.55-1.61-.17-3.19-.42-4.78-.63Z"/><path class="cls-5" d="M197.14,459.11c-2.85-.47-5.67-1-8.49-1.58C191.47,458.11,194.29,458.64,197.14,459.11Z"/><path class="cls-5" d="M200.23,459.58c1.42.21,2.82.46,4.24.65l.11-.08C203.13,460,201.67,459.8,200.23,459.58Z"/><path class="cls-5" d="M67.92,371.37a9.24,9.24,0,0,1,3.62-4.86,5.72,5.72,0,0,1,5.86-.24c2.23,1.38,2.88,4.27,4.36,6.43a9.37,9.37,0,0,0,6.89,4c2.36.21,4.74-.51,7.12-.27s4.93,2,4.65,4.4c-.22,1.83-2.07,3.3-1.79,5.11a7.25,7.25,0,0,0,1.57,2.75A7,7,0,0,1,98.63,398a5.67,5.67,0,0,0-1.95,1.81,3.41,3.41,0,0,0,.14,2.58,13.17,13.17,0,0,0,10.05,8.19c5.39.81,8.21-5.44,13.38-3.91,4.42,1.31,6.52,8.54,11,7.32,2.14-.59,3.23-3,5.18-4.09,6.42-3.47,21-2.81,26.47,2a5,5,0,0,1,1.53,4.83c-.5,2-2.29,4.28-1.05,6a3.74,3.74,0,0,0,2.26,1.22,12.52,12.52,0,0,0,5.68-.13,7.47,7.47,0,0,1,1.9-.39c1.31,0,2.4.94,3.53,1.63a7.24,7.24,0,0,0,7.1.4c1.73-1,2.8-2.8,4.13-4.3,3.11-3.54,8.15-2.39,12-4.46a17.61,17.61,0,0,0,8.48-11.29c.87-3.65.32-4.68-1.45-7.1s-5.33-2.91-1.64-7c1.14-1.29,2.58-2.31,3.63-3.67,1.7-2.22,1.67-4.92,1.33-7.66a35.18,35.18,0,0,0-7.66-3.08c-4.31-1.06-10-1.86-10.9-6.23-.31-1.53.11-3.23-.6-4.63-1.54-2.88-7.05-3.1-9.26-1.25-1.29,1.09-2.58,2.45-4.26,2.47-.93,0-1.94-.39-2.75.05-1.11.63-1,2.31-1.86,3.21-1.94,2.07-5.79-1.58-8.06.1-1,.72-1.16,2.1-2,3-2.6,2.54-7.58-2.2-10.35.16-.85.72-1.2,2-2.16,2.51-1.69.92-3.69-1.09-3.81-3s.73-3.76.84-5.69-1.2-4.25-3.09-4a6.7,6.7,0,0,0-2.22,1.07,8.46,8.46,0,0,1-3.26.89c-6.31.55-13-4.32-13.17-10.64-.07-3,1.83-8.12-.46-10.74-2-2.25-5.61-.81-8.1-2.12a16.44,16.44,0,0,1-2.62-2.12c-1.91-1.57-4.39-2.29-6.78-2.95-4.91-1.38-10.92-2.51-14.46,1.14a7.35,7.35,0,0,0-.37,9.52c-5.29,1.59-10.66,3.71-16,5s-6-1.79-10.66-2.4c-1.64-.2-3.39.75-4.91.09s-1.95-2.62-1.88-4.28.45-3.39-.24-4.9c-.57-1.29-1.92-2.46-1.62-3.86.18-.92,1-1.53,1.51-2.34,1-1.73.13-3.91.24-5.9a26.57,26.57,0,0,1,1.11-4.45c.35-1.49.27-3.26-.85-4.29-1.4-1.28-4-1.07-4.8-2.79-.36-.79-.22-1.77-.68-2.49-1.79-2.69-12.87,1.68-15.25,2.53a35.68,35.68,0,0,0-5.18,2.3,17.73,17.73,0,0,0-7.19,6.74,2.59,2.59,0,0,0-.17.33,225.29,225.29,0,0,0,26.39,44.9A228.1,228.1,0,0,0,69.12,391C67.7,384.52,65.77,377.5,67.92,371.37Z"/><path class="cls-5" d="M186.21,457.05q-10.87-2.34-21.36-5.7Q175.32,454.69,186.21,457.05Z"/><path class="cls-5" d="M151.4,446.53c-2.28-.9-4.54-1.82-6.77-2.78C146.86,444.71,149.12,445.63,151.4,446.53Z"/><path class="cls-5" d="M84.3,405.62c-1.78-1.57-3.54-3.18-5.27-4.81C80.76,402.44,82.52,404.05,84.3,405.62Z"/><path class="cls-5" d="M101.18,419.07c-1.87-1.35-3.72-2.71-5.54-4.12C97.46,416.36,99.31,417.72,101.18,419.07Z"/><path class="cls-5" d="M92.48,412.46q-2.61-2.08-5.17-4.26Q89.88,410.38,92.48,412.46Z"/><path class="cls-5" d="M76.53,398.48c-2.52-2.43-5-4.9-7.41-7.45C71.53,393.58,74,396.05,76.53,398.48Z"/><path class="cls-5" d="M122.09,432.58q-4.64-2.64-9.14-5.48Q117.45,429.94,122.09,432.58Z"/><path class="cls-5" d="M111.07,425.86c-2.33-1.51-4.63-3-6.9-4.62C106.44,422.82,108.74,424.35,111.07,425.86Z"/><path class="cls-5" d="M141.22,442.25c-2.22-1-4.41-2-6.59-3.09C136.81,440.22,139,441.26,141.22,442.25Z"/><path class="cls-5" d="M131.48,437.61c-2.47-1.25-4.91-2.57-7.33-3.91C126.57,435,129,436.35,131.48,437.61Z"/><path class="cls-5" d="M162.45,450.53q-3.93-1.3-7.78-2.74C157.24,448.76,159.83,449.66,162.45,450.53Z"/><path class="cls-6" d="M283.13,36.71c-2.38-1.07-5.63-.05-7.76-1.69-1.87-1.43-1.61-3.65-2.85-5.19-4.77-5.89-6.47-1.4-12.66-4-.93-.39-1.68-1.13-2.64-1.45-2.94-1-5.47,2.37-8.47,3.12-2.45.62-5.19-.53-7.52.47-3.36,1.43-3.66,6.17-6.28,8.72-1,1-2.33,1.63-3,2.83-1.87,3.21,2.1,7.47.51,10.83-.78,1.65-2.82,3.29-1.81,4.81a2.68,2.68,0,0,0,1.18.86c5.15,2.32,11.27-.27,16.76,1.07,2,.49,3.92,1.52,5.93,2.12a15.24,15.24,0,0,0,11.41-1.12,24,24,0,0,1,3.41-1.78c2-.71,4.27-.43,6.42-.58s4.53-.93,5.43-2.89c.78-1.69.22-3.79,1.09-5.43.64-1.19,1.89-1.9,2.73-2.94A5.28,5.28,0,0,0,283.13,36.71Z"/><path class="cls-5" d="M82,148.5c-.5.3-.59,1-.76,1.52-.47,1.52-1.89,2.49-2.92,3.7s-1.6,3.21-.39,4.24a3.42,3.42,0,0,0,2.88.41,17.65,17.65,0,0,0,6.34-2.58l.66-.43a24.1,24.1,0,0,0-3.82-6C83.46,148.72,82.65,148.11,82,148.5Z"/><path class="cls-7" d="M459.61,206v0A227.23,227.23,0,0,0,234.24,7.78C108.76,7.78,7,109.49,7,235a226.15,226.15,0,0,0,19.37,91.87,2.59,2.59,0,0,1,.17-.33,17.73,17.73,0,0,1,7.19-6.74,271.56,271.56,0,0,1-9.11-26c-1-3.36-12.89-46-7.32-45.28a6.69,6.69,0,0,1,5,8.93c2.93,1.75,7-.32,8.48-3.36s1.33-6.64,1.07-10.05c5.42,1.05,6.79,8,8.06,13.33,1.71,7.21,5.9,14.42,12.82,17.08s16.35-1.53,16.94-8.93c.82-10.4-14.58-17.89-11.61-27.88,1.3-4.41,5.84-7.08,7.89-11.2,5.44-11-9-25.61-1.62-35.41,3.78-5,11.49-5.47,15.69-10.16,4.61-5.14,4-14.25,9.92-17.79s14.74.84,19.72-3.84c2.1-2,2.76-4.94,4-7.52,5.86-12.07,22.66-13.34,32.75-22.17,11.71-10.26,12.75-29.29,24.94-39,.46-1.61,3.11-1,3.8.48s.24,3.28.38,4.92c.67,7,10.11,8.43,17.14,8.3S209.23,107,208.4,114c4.67-2.69,9.59-5.46,15-5.55s11.25,3.47,11.69,8.83c4.31,4.41,11.93,0,15-5.4s4.85-12.19,10.41-14.9c6.06-3,14.57.22,19.38-4.54,2.1-2.08,2.82-5.12,4.28-7.69,6.88-12,24.8-8.52,37.88-13a10.05,10.05,0,0,0,4.89-3.1c2.93-4-.43-10-5.09-11.62s-9.74-.13-14.44,1.33c-.21-3.43-.41-6.88-.61-10.33l-9.8-6.16c2.53-3.28,7.55-2.67,11.57-1.68a308.46,308.46,0,0,1,58.24,20.94c5.59,2.67,11.51,5.93,13.92,11.63,1.63,3.82,1.42,8.25,3.29,11.93,2,4,6.06,6.5,9.71,9.1a92.16,92.16,0,0,1,20.62,20.82,79.09,79.09,0,0,1-7.36,3.54c-1.89.81-3.52,1.57-5.66.83-1.07-.37-2.36-.78-2.71-2-.05-.22-.2-2.62.43-2.36a31.11,31.11,0,0,0-6.86-2.12,10.58,10.58,0,0,0-7,1.18,42.28,42.28,0,0,0-3.76,3.17,40.21,40.21,0,0,0-3.25,2.47,5.35,5.35,0,0,0-.62.72c-3.67,4.82,4.92,4.74,3,9.54-1.51,3.81-6.3,5.29-9.77,6.6-1.81.68-3.58,2.14-3.62,4.06s1.5,3.24,2.48,4.77c2.45,3.86,2.19,9-2.84,10.26-3.05.77-6.26-.61-9.39-.3-2,.21-3.95,1.11-6,1.18S347,155,346.87,153c-.06-1.07.48-2.33-.22-3.16a2.8,2.8,0,0,0-1.26-.7c-3.06-1-6.29-1.75-9.27-2.88-2.57-1-5-2.69-7.88-2.67-3.06,0-5.16,1.79-8.48.68a25.92,25.92,0,0,0-3.29-1.1c-2.89-.5-5.6,1.34-8.35,2.34s-6,1.27-8.28,3.23c-4.46,3.85-2.38,11.43-5.4,16.5-.8,1.35-2,2.47-2.62,3.87-1.76,3.69-.63,9.3,3.09,11,4.5,2.14,9.76-.59,14.43-.51a12.26,12.26,0,0,1,11.52,10c.59,3.8-.66,7.8.39,11.5,1.37,4.74,6.31,7.29,11,7.49,3.5.13,11.28-2.28,13-5.68.54-1.1.46-2.41.85-3.58,1.07-3.24,5.11-4.2,8.5-4.64l9.07-1.22a5.52,5.52,0,0,1,2.18,0c1.44.39,2.32,1.83,2.84,3.23a12.4,12.4,0,0,0,1.9,4c1.66,1.83,3.71.81,5.7,1.53s3.61,2.92,4.72,4.7c4.67,7.64,3.65,18.06-1.94,24.86a6.09,6.09,0,0,1-2.93,2.22c-2.4.63-4.7-1.42-7.17-1.51,1-1,.29-2.83-.92-3.55-3.34-2-8.56-2.41-12.32-4.16-4.23-2-7.29-1.52-11.83-1.94-2.58-.22-5.2-1.42-7.65-.63-1.77.58-3.06,2-4.5,3.19s-3.39,2.11-5.09,1.35c-1.95-.89-2.4-3.39-2.71-5.53-.76-4.89-7.41-8.28-11.9-9.39s-9.35,1.16-14,.61c-7.45-.91-18.35-14.72-23.42-3.93-.78,1.62-1.31,3.65-3,4.33-1.11.47-2.38.13-3.56.35-4.19.82-4.34,7.11-7.75,9.67-1.95,1.49-4.63,1.44-7.08,1.25-3.37-.26-7.32-1-8.74-4.11-.52-1.11-.61-2.42-1.33-3.41-.94-1.33-2.78-1.88-3.45-3.36a9.41,9.41,0,0,1-.35-2.88c-.33-3.59-3.91-6.16-7.47-6.82s-7.21,0-10.82.19a14.76,14.76,0,0,0-3.75.4c-4.81,1.46-3.74,6.7-6.77,9.72-1.43,1.44-3.33,2.36-4.83,3.73a38.07,38.07,0,0,0-3,3.92,7.52,7.52,0,0,1,7.17,8.67,7.33,7.33,0,0,0,4.59.63c-.05,2.93-.13,5.88-.18,8.81a3.84,3.84,0,0,1-.61,2.4c-.63.74-1.68.87-2.55,1.27-3.22,1.5-3.28,6-2.78,9.54s.63,8-2.51,9.66c2,.43,1.88,3.27,2.34,5.28a5.93,5.93,0,0,0,4.93,4.42c7.78.94,6.3-2.54,14,4.12,6,5.12,11.71,10.53,17.41,15.95-8.45,2.47-12.1,12.17-14.57,20.64-1,3.35-1.88,7.23.11,10.1a9.48,9.48,0,0,0,4.83,3.21c7.23,2.55,15.22,1.46,22.82,2.57,11.3,1.64,22.83,13,14.64,24.6-2.53,3.58-6.07,7.28-5.29,11.62.53,3.06,3.26,5.59,3.19,8.7-.17,7.4-13.69,6.94-15.73,14-6.11,1.58-13.06-2.92-14.13-9.13-.74-4.39,1.11-8.85.77-13.28s-5-9.19-8.74-6.84c-2.52,1.55-2.84,5.23-5.11,7.17-4.26,3.62-12.09-1.2-15.93,2.88-2.75,2.93-1.53,7.16-1,11.28.34,2.74.37,5.44-1.33,7.66-1,1.36-2.49,2.38-3.63,3.67-3.69,4.13-.24,4.5,1.64,7s2.32,3.45,1.45,7.1A17.61,17.61,0,0,1,200,416.65c-3.89,2.07-8.93.92-12,4.46-1.33,1.5-2.4,3.32-4.13,4.3a7.24,7.24,0,0,1-7.1-.4c-1.13-.69-2.22-1.59-3.53-1.63a7.47,7.47,0,0,0-1.9.39,12.52,12.52,0,0,1-5.68.13,3.74,3.74,0,0,1-2.26-1.22c-1.24-1.71.55-3.95,1.05-6a5,5,0,0,0-1.53-4.83c-5.5-4.82-20.05-5.48-26.47-2-2,1.07-3,3.5-5.18,4.09-4.45,1.22-6.55-6-11-7.32-5.17-1.53-8,4.72-13.38,3.91a13.17,13.17,0,0,1-10.05-8.19,3.41,3.41,0,0,1-.14-2.58A5.67,5.67,0,0,1,98.63,398a7,7,0,0,0,1.57-9.24A7.25,7.25,0,0,1,98.63,386c-.28-1.81,1.57-3.28,1.79-5.11.28-2.36-2.29-4.16-4.65-4.4s-4.76.48-7.12.27a9.37,9.37,0,0,1-6.89-4c-1.48-2.16-2.13-5.05-4.36-6.43a5.72,5.72,0,0,0-5.86.24,9.24,9.24,0,0,0-3.62,4.86c-2.15,6.13-.22,13.15,1.2,19.66,2.41,2.55,4.89,5,7.41,7.45.82.79,1.66,1.55,2.5,2.33,1.73,1.63,3.49,3.24,5.27,4.81,1,.88,2,1.73,3,2.58q2.56,2.18,5.17,4.26c1,.84,2.1,1.67,3.16,2.49,1.82,1.41,3.67,2.77,5.54,4.12,1,.73,2,1.46,3,2.17,2.27,1.58,4.57,3.11,6.9,4.62.63.4,1.25.84,1.88,1.24q4.5,2.83,9.14,5.48c.68.38,1.37.74,2.06,1.12,2.42,1.34,4.86,2.66,7.33,3.91,1,.53,2.1,1,3.15,1.55,2.18,1.06,4.37,2.1,6.59,3.09,1.13.51,2.26,1,3.41,1.5,2.23,1,4.49,1.88,6.77,2.78,1.08.42,2.17.85,3.27,1.26q3.86,1.44,7.78,2.74c.8.27,1.59.56,2.4.82q10.47,3.34,21.36,5.7c.81.17,1.63.32,2.44.48,2.82.58,5.64,1.11,8.49,1.58l3.09.47c1.44.22,2.9.38,4.35.57s3.17.46,4.78.63l1.25.14c3.49.36,7,.63,10.52.83l2.29.12c3.59.16,7.19.28,10.82.28,125.46,0,227.19-101.71,227.19-227.2A230,230,0,0,0,459.61,206ZM62.52,108.32c-6.66,6.4-11,14.77-15.21,23-5.76,11.22-11.64,22.84-12.44,35.42-.35,5.55.28,11.3-1.6,16.53-1,2.68-2.55,5.09-3.77,7.67A30.24,30.24,0,0,0,26.71,206c-1.73,2-5.32.67-6.42-1.72s-.5-5.17.11-7.73Q23.69,182.77,27,169c6.31-26.46,15-69.82,47.67-73.41C72,100.92,66.79,104.21,62.52,108.32ZM118.31,71a15.58,15.58,0,0,1,8.62-11l2.47,2.92A12.18,12.18,0,0,1,118.31,71Zm45.84-22.56c-1.58,1.56-4.16,2.35-6.07,1.21-1.36-.81-2.13-2.41-3.54-3.12-1.15-.57-2.75-.59-3.35-1.73-1.18-2.21,3.17-4.09,2.72-6.56,3.61-3.49,10.54-2.23,12.71,2.3l.67,2.07A15.27,15.27,0,0,1,164.15,48.39ZM285,44.47c-.84,1-2.09,1.75-2.73,2.94-.87,1.64-.31,3.74-1.09,5.43-.9,2-3.28,2.75-5.43,2.89s-4.38-.13-6.42.58a24,24,0,0,0-3.41,1.78,15.24,15.24,0,0,1-11.41,1.12c-2-.6-3.89-1.63-5.93-2.12C243.08,55.75,237,58.34,231.81,56a2.68,2.68,0,0,1-1.18-.86c-1-1.52,1-3.16,1.81-4.81,1.59-3.36-2.38-7.62-.51-10.83.69-1.2,2-1.86,3-2.83,2.62-2.55,2.92-7.29,6.28-8.72,2.33-1,5.07.15,7.52-.47,3-.75,5.53-4.08,8.47-3.12,1,.32,1.71,1.06,2.64,1.45,6.19,2.6,7.89-1.89,12.66,4,1.24,1.54,1,3.76,2.85,5.19,2.13,1.64,5.38.62,7.76,1.69A5.28,5.28,0,0,1,285,44.47Zm72.86,128.26a5.83,5.83,0,0,1-3-3.36c-.53-2.09.84-4.31,2.73-5.33a10.82,10.82,0,0,1,6.3-.83l-1.1.56,11.41,2.49C372.45,172.79,363.72,176.1,357.85,172.73ZM235.72,448.13a3.43,3.43,0,0,0-4,3.12,5.78,5.78,0,0,1-8.32-2.2,4.43,4.43,0,0,0-.77-1.42c-1.15-1.11-3.25,0-4.6-.8-1.73-1.09-.3-4,1.65-4.58s4.15-.17,6-1c1.17-.55,2.1-1.59,3.34-2,3.1-1,5.68,2.43,7.16,5.31ZM266,394.77c.65-3.61,5-5.12,7.16-8.08,1.59-2.19,1.9-5,2.15-7.72l2.31-24.76c.37-4,.85-8.2,3.38-11.27,9.68-11.7,24.11,6.9,20.54,17.23-1.76,5.08-4.75,10.4-3,15.5L283.79,393.6c-2.6,3.15-5.5,6.49-9.48,7.4S265.31,398.79,266,394.77Zm101,5.59a11.14,11.14,0,0,1-4.42,4.56,58.81,58.81,0,0,1-15.89,7.48c-3.61,1.08-7.74,2.11-9.6,5.39-.67,1.17-1,2.58-1.95,3.52a6.86,6.86,0,0,1-2.7,1.41L314,429.12c-2.28.79-4.73,1.71-6,3.77-.66,1.06-.92,2.34-1.63,3.37-2.56,3.7-8.33,1.83-12.72,2.84-3,.7-5.73,2.95-8.82,2.72-1.94-.15-3.66-1.26-5.49-1.92-4.41-1.59-9.29-.53-13.85.54a32.14,32.14,0,0,0,14.74-10.32c1-1.22,2-2.59,3.45-3.08,2.56-.85,5.17,1.29,7.87,1.32,2.08,0,3.93-1.21,5.88-1.93s4.56-.73,5.66,1l11.28-13.07c2.31-2.67,4.72-5.43,7.93-6.92s7.45-1.38,9.84,1.23c-.4-4,6.92-3.23,9-6.63a14.94,14.94,0,0,0,1-3.2c2.23-6.73,18.42-6.31,23.16-4.11C367.29,395.67,367.83,398.38,367,400.36Zm23.77-71-10.24,2.5,2.48,1-6,.26a21.84,21.84,0,0,1,2.22,6.53,11.15,11.15,0,0,1-4.69-1.32,34.38,34.38,0,0,1-1.62,6.93,77.94,77.94,0,0,1-7.13-8.26c-.45,1.67-.91,3.34-1.36,5a17.45,17.45,0,0,1-1.32-4.9,120.29,120.29,0,0,1-5.35,16q-1-7.71-1.94-15.43a58.7,58.7,0,0,1-9.25,8.14l4.35-12.29-2.89.61a9.08,9.08,0,0,1,.43-3.19,14.28,14.28,0,0,1-4.56.42,9.38,9.38,0,0,0,.36-2.69,16.59,16.59,0,0,1-5.43-1.51c-.53-.25-1.12-.68-1-1.26a1.32,1.32,0,0,1,.6-.74c2.73-2,6.32-2.23,9.68-2a1.6,1.6,0,0,0,1.16-.22c.73-.61-.09-1.76-.88-2.29s-1.69-1.58-1.05-2.29a2.25,2.25,0,0,1,1.23-.46,2.9,2.9,0,0,0-.19-5.67l3.45-.16a25,25,0,0,1-3.19-8.93,23.81,23.81,0,0,1,8.18,6.53c.27-3.48.55-7,.82-10.44a120.56,120.56,0,0,1,7.59,9.74c.47-2,.88-4,1.48-5.91.34,1,.46,4.08,1.66,4.28s2.55-1.92,3.16-2.55c.09,1.26,0,3.73-.69,4.84a25.9,25.9,0,0,1,7.38-7.44q-1.32,5.9-2.65,11.81a2.79,2.79,0,1,1,4,3.87l2-.5c-.3,1.18-.61,2.36-.91,3.55a5.15,5.15,0,0,0,3.46-.27c.06.5.12,1,.19,1.49l4.2-1.07c-.67.9-1.35,1.79-2,2.69l7.26.58-8.49,2.85A17.12,17.12,0,0,1,390.77,329.35Zm19.63-85.23c-2.19,4.78-5.32,9.18-6.66,14.26-.82,3.11-1,6.45-2.49,9.28a21.13,21.13,0,0,1-3.9,4.7L379.76,289.8c4.9-5.61,7.05-13.61,10.72-19.77,4.59-7.71,9.08-13.55,10.08-23,.38-3.55.31-7.18,1.42-10.57,1.17-3.58,3.61-6.67,4.63-10.3a26,26,0,0,0,.39-9.28,169.24,169.24,0,0,0-5-28.7c-.8-3-1.49-6.74.84-8.81,4.23,10.36,8.49,20.8,10.52,31.8S415.06,234,410.4,244.12Zm32.08,16.26c-1.86,2.17-4.81,3.68-5.45,6.48-.38,1.68.13,3.67-1,5a5.11,5.11,0,0,1-3,1.41l-9.2,2a2.86,2.86,0,0,1-2.32-.18c-1.09-.85-.4-2.54,0-3.86,1-3.26-.62-6.65-1.61-9.9s-1.1-7.46,1.72-9.34c1.27-.85,3-1.15,3.74-2.5s-.16-3.36.63-4.79,3-1.58,4.42-2.62c3.07-2.27.84-7,1-10.87.09-3.26,2.14-6.37,1.58-9.57-.35-2-1.67-3.72-1.86-5.73-.28-3.06,2.08-5.64,4.05-8s3.75-5.68,2.26-8.37c-4.6-8.29,3.17-8.34,6.18-1.42s-.18,20.51-.43,27.79a78.47,78.47,0,0,0,.33,14C444.5,246.89,447.1,255,442.48,260.38Z"/><path class="cls-5" d="M175,251.16c-.51,3.17-.29,6.91,2.24,8.88a10.15,10.15,0,0,0,4.43,1.63c1.64.32,4.52.64,5.64-1s-.68-4,.07-6c.64-1.75,2.08-3.09,3-4.73,2.23-4.21.43-9.71,2.72-13.87,1.23-2.24,3.47-3.76,4.84-5.91s1.34-5.68-1-6.61c-.67-.25-1.56-.38-1.76-1.07a1.67,1.67,0,0,1,.3-1.22l5.06-9.21c.42-.77.84-1.54,1.27-2.31a7.07,7.07,0,0,1,2.41-3c.55-.31,1.17-.48,1.7-.83,2.16-1.44,1.81-6.2.43-7.83-1.65-1.94-4.9-2-7.11-1.34a12.41,12.41,0,0,0-6.41,4.72c-.35.48-2.76,6.76-2.11,6.63l-8.37,1.68a6.89,6.89,0,0,0-3.22,1.23c-2.66,2.25-.68,6.63-1.52,10-1,3.92-5.72,6.22-6.15,10.23-.4,3.76,3.18,6.71,4.24,10.34C176.53,244.72,175.53,248,175,251.16Z"/><path class="cls-5" d="M255.1,132c2.71,2.07,6,4.71,5.34,8.06a10.56,10.56,0,0,1-1.3,2.94,20.43,20.43,0,0,0-.07,18.73c1.43,2.74,3.57,5.83,2.23,8.63-1,2.07-3.44,2.88-5.43,4s-3.79,3.68-2.51,5.59a5,5,0,0,0,2.71,1.65l8.16,2.83a6.71,6.71,0,0,0,3.29.54c1.58-.27,2.72-1.61,3.72-2.86,4.05-5.07,8.14-10.19,10.86-16.08a40,40,0,0,0,2.95-9.16c.79-4.11,1.18-8.78,4.38-11.47s8.74-3,10-6.92c1.37-4.35-4.11-8.27-3.71-12.81.22-2.4,2.08-4.52,1.89-6.93-.42-5.36-6.44-4.15-9.73-5.45-2.77-1.1-7.13-4.34-9.19-5-2.89-1-1.93-1.19-4.83-1.51.84.09-12.14,2.88-11.83,2.71-3,1.67-1.43,6.59-3.52,9.29-1.74,2.25-5.49,2.26-7,4.67C249.65,126.38,252.39,130,255.1,132Z"/><path class="cls-6" d="M365.34,394.77c-4.74-2.2-20.93-2.62-23.16,4.11a14.94,14.94,0,0,1-1,3.2c-2.09,3.4-9.41,2.66-9,6.63-2.39-2.61-6.63-2.73-9.84-1.23s-5.62,4.25-7.93,6.92L303.1,427.47c-1.1-1.77-3.71-1.76-5.66-1s-3.8,1.95-5.88,1.93c-2.7,0-5.31-2.17-7.87-1.32-1.49.49-2.48,1.86-3.45,3.08a32.14,32.14,0,0,1-14.74,10.32c4.56-1.07,9.44-2.13,13.85-.54,1.83.66,3.55,1.77,5.49,1.92,3.09.23,5.8-2,8.82-2.72,4.39-1,10.16.86,12.72-2.84.71-1,1-2.31,1.63-3.37,1.26-2.06,3.71-3,6-3.77l18.44-6.4a6.86,6.86,0,0,0,2.7-1.41c1-.94,1.28-2.35,1.95-3.52,1.86-3.28,6-4.31,9.6-5.39a58.81,58.81,0,0,0,15.89-7.48,11.14,11.14,0,0,0,4.42-4.56C367.83,398.38,367.29,395.67,365.34,394.77Z"/><path class="cls-6" d="M443.17,225.89c.25-7.28,3.42-20.9.43-27.79s-10.78-6.87-6.18,1.42c1.49,2.69-.29,6-2.26,8.37s-4.33,5-4.05,8c.19,2,1.51,3.74,1.86,5.73.56,3.2-1.49,6.31-1.58,9.57-.12,3.82,2.11,8.6-1,10.87-1.4,1-3.58,1.09-4.42,2.62s.12,3.35-.63,4.79-2.47,1.65-3.74,2.5c-2.82,1.88-2.72,6.08-1.72,9.34s2.57,6.64,1.61,9.9c-.39,1.32-1.08,3,0,3.86a2.86,2.86,0,0,0,2.32.18l9.2-2a5.11,5.11,0,0,0,3-1.41c1.09-1.33.58-3.32,1-5,.64-2.8,3.59-4.31,5.45-6.48,4.62-5.39,2-13.49,1-20.52A78.47,78.47,0,0,1,443.17,225.89Z"/><path class="cls-6" d="M153.91,38.19c.45,2.47-3.9,4.35-2.72,6.56.6,1.14,2.2,1.16,3.35,1.73,1.41.71,2.18,2.31,3.54,3.12,1.91,1.14,4.49.35,6.07-1.21a15.27,15.27,0,0,0,3.14-5.83l-.67-2.07C164.45,36,157.52,34.7,153.91,38.19Z"/><path class="cls-8" d="M135.34,300.19c.78.19,1.71.2,2.24.81a1.87,1.87,0,0,1-.33,2.48,5.35,5.35,0,0,1-2.49,1.12l.89,1.79-7.2,1.61,6.93,1.55-5.76,4.92a24.14,24.14,0,0,0,12.74-1.12,9,9,0,0,0-.21,3.51l2.36-2a2.5,2.5,0,0,0,3.22,2.74l.15,6.65a6.37,6.37,0,0,0,5.5-6.15,6.51,6.51,0,0,0,3.41,1.13,2.75,2.75,0,0,0-.42-2.72,13.13,13.13,0,0,0,4.07,2.3c-.34-1.17-.69-2.33-1-3.5a85.91,85.91,0,0,0,14.39,3.63c-1.47-3.44-5.77-4.52-8.57-7a.9.9,0,0,1,0-1.64,12.15,12.15,0,0,1,4.69-2.11,3.73,3.73,0,0,1-2.94-1.31,1.9,1.9,0,0,1,.61-2.82,11.45,11.45,0,0,0-4.48,0l.87-2.49a7.57,7.57,0,0,0-6.46-.64,26.64,26.64,0,0,0,4.51-14.67c0,.83-2.92,3.57-3.48,4.44a45.93,45.93,0,0,0-2.88,5.41c-1,2.06-1.15,2.81-1.78.31-.55-2.16-.09-5-.27-7.29-.65,2.45-1.29,4.89-1.93,7.34a10.82,10.82,0,0,0-1.71-2.94,7.4,7.4,0,0,0-1.25,2.77l-.88-1.15L146,297.54a6,6,0,0,0-6.7-1.09c-1,.49-1.89,1.28-3,1.4-.81.09-1.88-.09-2.23.65S134.55,300,135.34,300.19Z"/><path class="cls-6" d="M386.44,323.78c.68-.9,1.36-1.79,2-2.69l-4.2,1.07c-.07-.5-.13-1-.19-1.49a5.15,5.15,0,0,1-3.46.27c.3-1.19.61-2.37.91-3.55l-2,.5a2.79,2.79,0,1,0-4-3.87q1.32-5.91,2.65-11.81a25.9,25.9,0,0,0-7.38,7.44c.72-1.11.78-3.58.69-4.84-.61.63-2.05,2.73-3.16,2.55s-1.32-3.3-1.66-4.28c-.6,1.93-1,3.95-1.48,5.91a120.56,120.56,0,0,0-7.59-9.74c-.27,3.48-.55,7-.82,10.44a23.81,23.81,0,0,0-8.18-6.53,25,25,0,0,0,3.19,8.93l-3.45.16a2.9,2.9,0,0,1,.19,5.67,2.25,2.25,0,0,0-1.23.46c-.64.71.26,1.75,1.05,2.29s1.61,1.68.88,2.29a1.6,1.6,0,0,1-1.16.22c-3.36-.19-6.95.08-9.68,2a1.32,1.32,0,0,0-.6.74c-.1.58.49,1,1,1.26a16.59,16.59,0,0,0,5.43,1.51,9.38,9.38,0,0,1-.36,2.69,14.28,14.28,0,0,0,4.56-.42,9.08,9.08,0,0,0-.43,3.19l2.89-.61-4.35,12.29a58.7,58.7,0,0,0,9.25-8.14q1,7.71,1.94,15.43a120.29,120.29,0,0,0,5.35-16,17.45,17.45,0,0,0,1.32,4.9c.45-1.67.91-3.34,1.36-5a77.94,77.94,0,0,0,7.13,8.26,34.38,34.38,0,0,0,1.62-6.93,11.15,11.15,0,0,0,4.69,1.32,21.84,21.84,0,0,0-2.22-6.53l6-.26-2.48-1,10.24-2.5a17.12,17.12,0,0,0-5.56-2.14l8.49-2.85Z"/><path class="cls-6" d="M78.11,208.48c1.4.86,4.35-1,6.25-.44,1.6.49,3,2.21,2.43,3.8-.23.67-.74,1.22-1,1.89-.55,1.5.47,3.22,1.87,4a10.3,10.3,0,0,0,4.68.93c-1.67,1.12-1.34,3.93.23,5.18s3.81,1.27,5.77.82,3.81-1.32,5.8-1.64,4.29-.24,5.49-1.82.4-4.06.17-6.17c-.48-4.36,3.35-9.13,7.66-8.34,2,.36,4.78,1.45,5.58-.43.37-.85,0-1.84.13-2.75.39-2,3.35-2.78,3.63-4.82.15-1.15-.66-2.22-.75-3.39a3,3,0,0,1,3.56-2.95,3,3,0,0,0-1.27-3.27,14.91,14.91,0,0,0-3.41-1.58c-5.91-2.43-9.43-10.14-17-5.66a18.61,18.61,0,0,1-3.26,1.81,11,11,0,0,1-3.81.21,33.28,33.28,0,0,0-9.43,1,6.18,6.18,0,0,0-3.07,1.48c-.52.54-.85,1.24-1.34,1.82-1.87,2.21-5.74,2.19-7.13,4.73-1.72,3.13,1.79,7.45-.21,10.41C78.76,204.67,75.41,206.81,78.11,208.48Z"/><path class="cls-6" d="M274.31,401c4-.91,6.88-4.25,9.48-7.4l14.77-17.93c-1.73-5.1,1.26-10.42,3-15.5,3.57-10.33-10.86-28.93-20.54-17.23-2.53,3.07-3,7.3-3.38,11.27L275.35,379c-.25,2.69-.56,5.53-2.15,7.72-2.17,3-6.51,4.47-7.16,8.08C265.31,398.79,270.32,401.91,274.31,401Z"/><path class="cls-6" d="M118.31,71a12.18,12.18,0,0,0,11.09-8L126.93,60A15.58,15.58,0,0,0,118.31,71Z"/><path class="cls-6" d="M363.93,163.21a10.82,10.82,0,0,0-6.3.83c-1.89,1-3.26,3.24-2.73,5.33a5.83,5.83,0,0,0,3,3.36c5.87,3.37,14.6.06,16.39-6.47l-11.41-2.49Z"/><path class="cls-9" d="M27,169q-3.28,13.78-6.58,27.58c-.61,2.56-1.2,5.34-.11,7.73S25,208,26.71,206a30.24,30.24,0,0,1,2.79-15.08c1.22-2.58,2.8-5,3.77-7.67,1.88-5.23,1.25-11,1.6-16.53.8-12.58,6.68-24.2,12.44-35.42,4.22-8.21,8.55-16.58,15.21-23,4.27-4.11,9.48-7.4,12.13-12.76C42,99.15,33.29,142.51,27,169Z"/><path class="cls-9" d="M402.81,179.41c-2.33,2.07-1.64,5.8-.84,8.81a169.24,169.24,0,0,1,5,28.7,26,26,0,0,1-.39,9.28c-1,3.63-3.46,6.72-4.63,10.3-1.11,3.39-1,7-1.42,10.57-1,9.41-5.49,15.25-10.08,23-3.67,6.16-5.82,14.16-10.72,19.77l17.59-17.44a21.13,21.13,0,0,0,3.9-4.7c1.53-2.83,1.67-6.17,2.49-9.28,1.34-5.08,4.47-9.48,6.66-14.26,4.66-10.17,5-21.9,2.93-32.91S407,189.77,402.81,179.41Z"/><path class="cls-10" d="M229,439.25c-1.24.38-2.17,1.42-3.34,2-1.85.86-4.06.42-6,1s-3.38,3.49-1.65,4.58c1.35.84,3.45-.31,4.6.8a4.43,4.43,0,0,1,.77,1.42,5.78,5.78,0,0,0,8.32,2.2,3.43,3.43,0,0,1,4-3.12l.45-3.57C234.69,441.68,232.11,438.29,229,439.25Z"/><path class="cls-8" d="M81.51,315.3h-.74c.59-3.95-5.16-7-8.1-4.3,0,2.87,0,5.73,0,8.6C76,321.62,81,319.17,81.51,315.3Z"/><path class="cls-11" d="M193,325l16.05,10.45c-.13-1.29-.22-1.07.14-1.52l5.13,1.25.29-.46,1.76,1.11c-4.48-13.3-24.39-11.38-25.32-13.77l.09-.53,18.12,3.2,0,.7-.5-1,.36-.32,9.94,6.94.31-.45-66.6-46.84.18-.27,51.46,34.88,9.25-56.12.08.23,39.31,28.89,3.69-15.27.33-.11L265,282l9.66-1.95-.64-1.14-30.58-31.09c3.26.67,12.06.17,16.24.43,11.26.7,6.35-3.54,11.64-5.25l11.86,8.73c2.63,2.22,16.2,8.31,20,9.93,3.49,1.48,6.94,3.27,10.45,4.63,6.73,2.6,5.46,2.25,10.47-1.23l-35-24.49,0-1.53,20.37-.68.12,1.75-1.7-4.28,13,8.81-26.9-20.76,2.89,3.08c-1.52-.59-5.07-5.32-5.92-6.88-1.67-3.05,0-8.26-.25-11.7-.43-5.75-7.89-10-12.2-13.59-4.59-3.81-9.61-7.66-14.33-11.4-3.15-2.48-11.69-10.17-14-11.64a6,6,0,0,0-1.91,1.21c-1.45,1.4-1.32,2.86-2.82,3.94a4.92,4.92,0,0,1-1.58.69,22.1,22.1,0,0,1-8,.82c-6.7-.67-13.66-5.57-14.42-6.11l.36-.68a5.48,5.48,0,0,0,2.28,1.52,2.38,2.38,0,0,1,.61.19,11.55,11.55,0,0,0,2.27,1.25c2.45.87,3.9,1.82,6.67,2.4,2,.4,15.76.23,13-4.22-.54-.06-3,3.06-10.16,2.72a16.7,16.7,0,0,1-9.85-3.65c-6.41-4.53-4.59-14.78-4.32-21.24-7.69,1.2-3.23-.29,1-1.75.41.53.31.23.22,1.47l1.51-.64-4.51-2.77-13.11-10.27c-.68.69-.78,1.89-1,2.8l.34-.49,13.39,9.82-.85,1.16c-1.23.79-11.92-2-14.09-2.49s-2.56,1.42-6.07-1.94c-3.93-3.77-1-5.2-.74-5.76l8.06,3.46v-1.32l-.4.58-7.62-3.8v-1.08l6.81-1.51-34.18-29.07c-7,2.84-4.3-1.3-6.74,8-.77,2.93-3.4,9.24-.79,11.07,5.48,3.84,11.26,9,16.68,13.19,15.08,11.56,30.86,24,40.83,32.45l-.68.81c-23.23-18.74-38.74-30.65-66.89-52.33l-.6.78,8.36,6.06c1,3.48-6.82,16.55,1.85,24.28a98.11,98.11,0,0,0,8.63,6.57c1.78,1.26,10.35,4.71,10.43,4.81,1.26,9.36-9.23,48.75-11.76,60.24-4,18-10.89,38.1-16.94,55.47-2.61,7.51-.92,6.34-8.14,1.79-1.52-1-12.49-6.32-12.81-3.08-.54,5.56,19.42,16.71,19.42,16.71C161.81,299.2,175.69,308.47,193,325Z"/><path class="cls-11" d="M234.73,137.92c.72-1.13,10.36-7.73,12.2-9,4.88-3.51,2.09-2.07-2.84-2.1-3.51,0-7,.1-10.53.09-10.66-.05-24.07-3.33-27.81-14.5-3.92-11.67,6.69-20.63,16.61-24.06,5.6-1.94,37-3.38,38.75-.81L245.53,98.22l-.21-.3c1.28.52,21.12-2.42,31.94,2.41,7.54,3.37,16.35,12.58,13.73,21.93-2.54,9-12.52,13.73-21,15.29-6.79,1.25-27.94,1-35.26.37Zm-41.27-67L165.3,104.28l1.65,1.29c.73.49,3.65.72,6.45,2.23,6.94,3.75,29.75,25.1,33.5,26.14l2.73-1.36c1.84,1-.54,1.61,4.6,1.58,2.09,0,3.44.34,3.46,2.66,0,5.15-1.31,4.27,2.71,8.56l7.6,4.05.48-.67-.42-1a14.07,14.07,0,0,1,19.42,1.7c8.4,9.57.69,18.12.91,19.9,1.13.91,1.91.32,2.78,1.07.53.45,1,1.47,1.75,2.13,4.24,3.56,8.63,7.06,13.05,10.42,5.95,4.52,11.59,9.31,17.57,13.75,13.61,10.09,6.23,9.83,8.7,22.11.77,3.84,13.11,12.22,16.72,14.59l6.28-45.18-35.82-26.08c-15.05,2.05-5.88,14-7,24.76-4.28.2-4.43-15.84-4.64-19.22-.49-8,7.93-8.39,14.18-9.62,9.61-1.89,30-3.68,34.18-13.86,5.21-12.72,2.61-27.14-4.25-38.52-5.15-8.53-15.66-18.59-24.32-23.49C279,78.26,274,74.39,264.26,71.62a107.6,107.6,0,0,0-59.46-.35c-3.32.92-9.35,3.08-12.1,4.87-1.8,1.18-.54-.81-2.48,1.22-.33.35-6.78,5.16-7.47,4.55l-.31-.32,11-10.66Z"/><path class="cls-12" d="M253.12,291.4l-11.29,46.25-.3-.07L242.8,331l-3.67,1.74-.7-.13-4,6.89.47.71-1.6.51L230,329.52l.72-.26-1.32,6.24-24.91-17.1L153,283.52l-.19.26,66.6,46.85-.31.45-9.94-6.94-.36.32.5,1,0-.7-18.12-3.19-.09.53c.93,2.39,20.84.47,25.33,13.77l-1.77-1.11-.28.46-5.14-1.25c-.36.45-.26.23-.14,1.52L193,325l-1.29.07-27.51,1.71-2.78,7.3c7.54,5.09,19.62,9.94,28.17,15.08,9,5.41,17.24,11.4,26.08,17.26,18.25,12.12,32.93,24,49.64,37,16,12.42,32.31,25.11,47.53,39.14,4.44,4.09,44.13,41.68,44.73,41.77L335.16,453.1c-2.25-1.87-18-24.46-21.46-28.79-7.83-9.87-15.54-16.93-23.94-26.34-7.89-8.84-29.26-28.91-39.51-35.81-1.75-1.18-14.94-9.65-15.09-10.12l11.11,7a54.42,54.42,0,0,1,2.52-6.11l.64-.69L388,467.72l-.77.92c-2.81-7.4-73.82-64-85.6-74-14.3-12.14-28.65-25-43.35-36.53-3.82-3-9-5.34-7.85-10.54s2.66-11,3.9-16.38c.76-3.26,7.05-32.06,7.84-32.28L265,282,257.15,276l-.33.12-3.69,15.27Z"/><path class="cls-12" d="M287.58,82.21c8.66,4.9,19.17,15,24.32,23.49,6.86,11.38,9.45,25.8,4.25,38.52-4.16,10.18-24.57,12-34.18,13.86-6.25,1.23-14.67,1.57-14.18,9.61.21,3.39.35,19.43,4.64,19.23,1.11-10.79-8.06-22.72,7-24.76l13.37-2.42L311,155.82c1.53-.33,7.14-4.93,8.36-6.22,3.35-3.5,2.4-7.27,3.61-11l1-1.47L362.63,164l-.78,1.58-17.42,15.16,9.74,19.46-.35.17c-.42.65-8.44,5-9.51,5.63-5.82,3.32-6.57,1.15-6.75,8.2l-13.34-2.93.24-26.35-9.22,3.35L309,233.42l12,11.17-13-8.81c.29.85.59,1.71.89,2.56h0l-19.68.64,0,1.54,35,24.49c10.16-5.55-1.66-9.11.85-14.78.7-1.58,11.08-6,9.53-13.66l-7.2-4.26.24-.4c.39-1.3,6-3,6.84-4.67,1.92-3.59,3.62-2.73,5.95-5.51,5.78-6.9-8.11-7.82,3.32-13.88,19.37-10.26,12.61-8,5.37-25.54,4.47-4.68,9.17-9,13.61-13.88,4.86-5.36,2.86-2.86,2.45-9.5-.27-4.46-.19-8.85-.37-13.28-.51-13.34-5.83-30.67-12.5-42.25-13.91-24.14-33.87-40.81-60.63-48.95,7.73,13.16,9.56,24.21,5.41,27.62C296.12,82.77,293.7,84.24,287.58,82.21Z"/><path class="cls-13" d="M234.73,137.92c7.32.65,28.47.88,35.26-.37,8.48-1.56,18.46-6.25,21-15.29,2.62-9.35-6.19-18.56-13.73-21.93-10.82-4.83-30.66-1.89-31.94-2.41l.21.3L261.11,87.5c-1.77-2.57-33.15-1.13-38.75.81-9.92,3.43-20.53,12.39-16.61,24.06,3.74,11.17,17.15,14.45,27.8,14.5,3.52,0,7-.1,10.54-.09,4.93,0,7.72-1.41,2.84,2.1-1.84,1.31-11.48,7.91-12.2,9Z"/><polygon class="cls-14" points="204.49 318.4 229.4 335.5 230.72 329.26 230 329.52 233.26 340.74 234.86 340.23 234.39 339.52 238.43 332.63 239.13 332.76 242.8 331.02 241.53 337.58 241.83 337.65 253.12 291.4 213.81 262.5 213.73 262.28 204.49 318.4"/><path class="cls-15" d="M193.46,70.93l-11,10.66.31.32c.68.61,7.14-4.2,7.47-4.55,1.94-2,.68,0,2.48-1.22,2.75-1.79,8.77-4,12.1-4.87a107.6,107.6,0,0,1,59.46.35C274,74.38,279,78.26,287.58,82.21c24,8.87,4.06-27.09,4-27.76-2.14-2-22-5.2-26-5.51A94.09,94.09,0,0,0,236.81,51,131.6,131.6,0,0,0,213,58.87c-3.15,1.34-18.67,9.9-19.58,12.06Z"/><path class="cls-15" d="M311,155.82l-18.24,3.92-13.37,2.42,35.82,26.08,9.22-3.35-.24,26.35,13.34,2.93c.18-7,.93-4.88,6.75-8.2,1.08-.61,9.09-5,9.51-5.63l.35-.17-9.74-19.46-9.2.25-.53-1.34,17.75-14.41c-.48-.05-21.14-12.1-23.41-13.41a42.29,42.29,0,0,1-2.54,3.67l.17-.4,21.7,10.12c-.14.5-.93,2.54-1.34,2.56l-21.76-7.41-1.57,2.07,9.34,7.65a5.43,5.43,0,0,1-1.31,2c-1.93-1.48-19.3-14.92-19.73-15.07l-2.13,1.48,1.16-2.68Z"/><polygon class="cls-16" points="124.63 293.31 120.19 297.52 164.24 326.78 191.74 325.08 136.18 282.57 135.49 281.35 124.63 293.31"/><path class="cls-17" d="M220.4,145.38l.25,1.47,4.51,2.76-1.51.64c.09-1.24.19-.93-.22-1.46l-5.15,1.78.16.58,4-.62c-.27,6.46-2.09,16.72,4.32,21.25a16.8,16.8,0,0,0,9.84,3.65c7.13.34,9.63-2.78,10.17-2.72,2.76,4.45-11,4.62-13,4.21-2.78-.58-4.22-1.52-6.67-2.4a54.94,54.94,0,0,1-5.18-3.19l-.78.82c.51,2.16,12,6.64,15,6.71,12.54.31,9.75-5,14.18-7.16,2.31,1.46,10.85,9.16,14,11.64,4.73,3.73,9.75,7.58,14.34,11.4,4.31,3.58,11.77,7.83,12.2,13.59.25,3.44-1.42,8.64.24,11.7.86,1.56,4.41,6.29,5.93,6.87l-2.89-3.07L321,244.59l-12-11.17c-3.61-2.37-15.95-10.75-16.72-14.59-2.48-12.29,4.9-12-8.7-22.11-6-4.44-11.62-9.23-17.58-13.75-4.41-3.36-8.8-6.86-13-10.43-.79-.65-1.22-1.67-1.75-2.12-.87-.75-1.65-.16-2.78-1.07-.23-1.78,7.48-10.33-.91-19.9a14.06,14.06,0,0,0-19.42-1.7l.42,1-.48.67-7.6-4.05Z"/><path class="cls-11" d="M311,155.82l-1.16,2.69L312,157c.43.15,17.8,13.59,19.73,15.08a5.55,5.55,0,0,0,1.31-2l-9.34-7.64,1.57-2.07,21.76,7.4c.41,0,1.2-2.06,1.34-2.56l-21.7-10.11-.17.39A40.82,40.82,0,0,0,329,151.8c2.27,1.31,22.93,13.36,23.41,13.41L334.7,179.63l.53,1.34,9.2-.26,17.43-15.16.77-1.57L324,137.11l-1,1.47c-1.21,3.75-.26,7.52-3.61,11-1.22,1.28-6.83,5.88-8.36,6.21Z"/><path class="cls-14" d="M274,278.85q2.06-4.83,4.1-9.68l-.19-.34-3.31-6.92,8.56-10.23L271.29,243c-5.29,1.71-.38,6-11.64,5.25-4.18-.27-13,.24-16.24-.43Z"/><path class="cls-18" d="M206.9,133.94,205.34,136l-6.81,1.51v1.07l7.62,3.8.4-.57v1.32l-8.06-3.46c-.24.56-3.19,2,.74,5.75,3.51,3.37,3.81,1.47,6.07,1.95s12.86,3.27,14.09,2.48l.85-1.16-13.39-9.81-.34.49c.26-.92.36-2.12,1-2.8l13.11,10.27-.25-1.47c-4-4.29-2.69-3.41-2.71-8.56,0-2.32-1.37-2.68-3.46-2.66-5.13,0-2.76-.61-4.6-1.58l-2.73,1.36Z"/></g></svg>